<svg width="51" height="51" viewBox="0 0 51 51" fill="none" xmlns="http://www.w3.org/2000/svg">
<g clip-path="url(#clip0_265_470)">
<path fill-rule="evenodd" clip-rule="evenodd" d="M27.654 23.0018V22.9287C27.6391 22.9532 27.6184 22.9777 27.6055 23.0018H27.654Z" fill="white"/>
<path fill-rule="evenodd" clip-rule="evenodd" d="M0.576172 0.545654V50.5457H50.5762V0.545654H0.576172ZM16.128 42.0843H8.7098V19.7661H16.128V42.0843ZM12.4189 16.7199H12.3699C9.88145 16.7199 8.26848 15.0055 8.26848 12.8627C8.26848 10.6728 9.92859 9.00697 12.4675 9.00697C15.0069 9.00697 16.5675 10.6728 16.6161 12.8627C16.6161 15.0055 15.0069 16.7199 12.4189 16.7199ZM42.8839 42.0843H35.4636V30.144C35.4636 27.145 34.3916 25.0979 31.706 25.0979C29.655 25.0979 28.4362 26.4762 27.8992 27.8114C27.7041 28.2883 27.6531 28.9513 27.6531 29.6201V42.0844H20.2314C20.2314 42.0844 20.3309 21.8599 20.2314 19.7662H27.6531V22.9287C28.6391 21.4115 30.3988 19.2422 34.3406 19.2422C39.2238 19.2422 42.8839 22.4313 42.8839 29.286V42.0843Z" fill="white"/>
</g>
<defs>
<clipPath id="clip0_265_470">
<rect width="50" height="50" fill="white" transform="translate(0.576172 0.545654)"/>
</clipPath>
</defs>
</svg>
