<svg width="50" height="43" viewBox="0 0 50 43" fill="none" xmlns="http://www.w3.org/2000/svg">
<path d="M20.0927 0.52832L12.4927 31.3843L10.6687 22.5683C13.6074 22.5683 16.0394 23.4803 17.9647 25.3043C19.8901 27.1283 20.8527 29.5603 20.8527 32.6003C20.8527 35.6403 19.8901 38.123 17.9647 40.0483C16.0394 41.9737 13.6581 42.9363 10.8207 42.9363C7.88205 42.9363 5.45005 41.9737 3.52472 40.0483C1.59939 38.0217 0.636719 35.539 0.636719 32.6003C0.636719 31.587 0.687385 30.6243 0.788718 29.7123C0.991385 28.8003 1.29539 27.7363 1.70072 26.5203C2.10605 25.203 2.66339 23.6323 3.37272 21.8083L10.5167 0.52832H20.0927ZM48.8207 0.52832L41.2207 31.3843L39.3967 22.5683C42.3354 22.5683 44.7674 23.4803 46.6927 25.3043C48.6181 27.1283 49.5807 29.5603 49.5807 32.6003C49.5807 35.6403 48.6181 38.123 46.6927 40.0483C44.7674 41.9737 42.3861 42.9363 39.5487 42.9363C36.6101 42.9363 34.1781 41.9737 32.2527 40.0483C30.3274 38.0217 29.3647 35.539 29.3647 32.6003C29.3647 31.587 29.4154 30.6243 29.5167 29.7123C29.7194 28.8003 30.0234 27.7363 30.4287 26.5203C30.8341 25.203 31.3914 23.6323 32.1007 21.8083L39.2447 0.52832H48.8207Z" fill="#252525"/>
</svg>
